<svg xmlns="http://www.w3.org/2000/svg" width="300" height="300" viewBox="0 0 300 300">
  <defs>
    <pattern id="mlp-elements" x="0" y="0" width="300" height="300" patternUnits="userSpaceOnUse">
      <!-- star -->
      <path d="M50 45 L53 55 L63 55 L55 61 L58 71 L50 65 L42 71 L45 61 L37 55 L47 55 Z" fill="#ffd700" opacity="0.25"/>
      <!-- heart -->
      <path d="M130 50 C125 42 115 42 110 50 C105 42 95 42 90 50 C85 60 110 80 110 80 C110 80 135 60 130 50 Z" fill="#ff69b4" opacity="0.22"/>
      <!-- butterfly -->
      <path d="M220 45 Q210 35 205 45 Q200 35 190 45 Q185 55 195 60 Q185 65 190 75 Q200 85 205 75 Q210 85 220 75 Q225 65 215 60 Q225 55 220 45 Z" fill="#87ceeb" opacity="0.22"/>
      <!-- balloon -->
      <ellipse cx="60" cy="150" rx="10" ry="12" fill="#ff8fa3" opacity="0.2"/>
      <path d="M60 162 L60 172" stroke="#ff8fa3" stroke-width="1.5" opacity="0.2"/>
      <!-- diamond -->
      <path d="M150 130 L160 145 L150 160 L140 145 Z" fill="#6fc8d4" opacity="0.22"/>
      <!-- apple -->
      <path d="M250 140 Q240 135 235 145 Q230 160 245 170 Q260 160 255 145 Q250 135 250 140" fill="#ff6b6b" opacity="0.2"/>
      <path d="M250 140 Q255 130 260 135" stroke="#7cb342" stroke-width="1.5" fill="none" opacity="0.25"/>
      <!-- rainbow arc -->
      <path d="M40 250 Q60 210 80 250" stroke="#ff9aa2" stroke-width="2.5" fill="none" opacity="0.2"/>
      <path d="M40 255 Q60 215 80 255" stroke="#ffb7b2" stroke-width="2.5" fill="none" opacity="0.2"/>
      <path d="M40 260 Q60 220 80 260" stroke="#ffdac1" stroke-width="2.5" fill="none" opacity="0.2"/>
      <!-- small star -->
      <path d="M180 240 L182 246 L188 246 L183 250 L185 256 L180 252 L175 256 L177 250 L172 246 L178 246 Z" fill="#c98cff" opacity="0.25"/>
      <!-- cloud -->
      <path d="M260 240 Q250 230 240 240 Q230 235 230 245 Q230 255 245 255 L270 255 Q280 255 280 245 Q280 235 270 240 Q265 230 260 240 Z" fill="#ffffff" opacity="0.25"/>
      <!-- tiny heart -->
      <path d="M115 220 C113 216 108 216 106 220 C104 216 99 216 97 220 C95 225 106 235 106 235 C106 235 117 225 115 220 Z" fill="#ff9ecd" opacity="0.22"/>
    </pattern>
  </defs>
  <rect width="100%" height="100%" fill="url(#mlp-elements)"/>
</svg>